PathFileType	4	(X/Y/Z)	c:/Users/goper/Files/vsCode/490R/osim_files/C08/C08_Fast_03.trc
DataRate	CameraRate	NumFrames	NumMarkers	Units                	OrigDataRate	OrigDataStartFrame	OrigNumFrames
250.00	250.00	8	36	mm	250.0	1161	2321
                Frame#	Time	LPSIS			LASIS			LTH1			LTH2			LTH3			LTH4			LLFE			LMFE			LSH1			LSH2			LSH3			LSH4			LLMAL			LMMAL			LCAL			LMTP5			LTOE			LMTP1			RPSIS			RASIS			RTH1			RTH2			RTH3			RTH4			RLFE			RMFE			RSH1			RSH2			RSH3			RSH4			RLMAL			RMMAL			RCAL			RMTP1			RTOE			RMTP5		
		X1	Y1	Z1	X2	Y2	Z2	X3	Y3	Z3	X4	Y4	Z4	X5	Y5	Z5	X6	Y6	Z6	X7	Y7	Z7	X8	Y8	Z8	X9	Y9	Z9	X10	Y10	Z10	X11	Y11	Z11	X12	Y12	Z12	X13	Y13	Z13	X14	Y14	Z14	X15	Y15	Z15	X16	Y16	Z16	X17	Y17	Z17	X18	Y18	Z18	X19	Y19	Z19	X20	Y20	Z20	X21	Y21	Z21	X22	Y22	Z22	X23	Y23	Z23	X24	Y24	Z24	X25	Y25	Z25	X26	Y26	Z26	X27	Y27	Z27	X28	Y28	Z28	X29	Y29	Z29	X30	Y30	Z30	X31	Y31	Z31	X32	Y32	Z32	X33	Y33	Z33	X34	Y34	Z34	X35	Y35	Z35	X36	Y36	Z36

1161	4.64000	589.95441	1025.06177	235.80856	393.95615	981.08667	343.15500	548.98340	718.17303	404.41580	563.93866	642.17944	385.23285	579.90698	570.98914	378.80731	484.96838	633.04620	375.78256	595.59259	524.44342	369.89841	576.50159	507.82764	244.67339	706.15637	444.60611	373.44376	727.48969	401.83588	372.01303	654.19208	411.66913	378.58487	682.25824	374.82349	374.44449	873.65649	168.47792	317.91580	845.57068	166.16000	232.50035	937.29529	185.71011	261.04874	815.69324	49.51885	343.64862	754.94043	52.70243	282.17447	787.93158	47.60620	227.15971	583.93500	1020.18768	176.35033	377.41171	990.52539	106.60764	373.53503	732.00098	43.71799	344.75729	660.11414	64.29070	313.66016	585.16656	80.38641	278.76596	689.59247	93.70522	289.63116	524.93781	90.17156	0.00000	0.00000	0.00000	321.84885	430.93539	71.55602	306.16397	388.96454	66.90076	261.99857	444.33893	83.41486	255.34201	401.27258	76.61024	252.19307	97.26640	124.42500	223.47803	105.29511	213.60513	303.32724	73.89695	196.01646	90.06402	62.82712	201.58899	76.96777	86.90586	147.42865	123.15041	54.67247	89.72691
1162	4.64400	583.71234	1025.22437	235.38147	388.51596	981.20599	343.12482	541.22766	717.49280	404.13208	555.32898	641.25104	385.41687	570.63202	569.81329	379.17239	476.29959	632.69440	376.47037	585.87927	523.46179	370.66156	566.09625	506.30185	245.59396	696.95135	445.01465	373.75952	718.89062	402.56635	372.32520	645.41138	411.51837	379.37656	674.21936	374.89462	375.38730	868.40924	171.76201	318.24167	840.19037	168.66278	232.90950	931.19208	191.04875	261.21539	814.18359	50.83445	343.65948	753.58423	52.63771	282.18246	786.17969	48.42691	227.14064	577.63654	1020.53955	175.84818	371.18680	991.23633	106.52076	366.74600	733.20544	43.21988	337.77539	660.83423	64.07510	306.96286	585.84747	80.09414	272.08905	690.91589	93.49184	283.25488	525.77820	90.26105	0.00000	0.00000	0.00000	316.19446	431.88345	70.69872	300.95276	389.69968	66.26620	256.30927	444.56006	83.45101	250.22681	401.46320	76.62201	251.19540	97.42239	124.42419	222.67767	105.14844	213.62175	302.83008	74.24220	195.90221	89.63480	60.78764	201.49330	75.76609	84.69011	147.91757	122.51781	53.57334	89.99822
1163	4.64800	577.47632	1025.39551	234.98596	381.28143	981.72595	342.45139	533.28687	716.74902	403.84085	546.64618	640.23883	385.55496	561.18048	568.63776	379.60992	467.47232	632.35699	377.14282	575.91718	522.39575	371.47357	555.39691	504.64938	246.58054	687.41101	445.37411	374.15009	709.96240	403.27344	372.68784	636.63885	411.55838	380.15506	665.46100	374.80670	375.72900	863.18628	175.38730	318.59189	834.54437	171.32533	233.23674	924.66693	196.67439	261.28754	812.56970	52.47016	343.66861	751.96863	52.57717	282.24435	784.38049	49.41558	227.15202	571.37317	1021.00226	175.37068	364.79584	991.90875	106.44388	359.83002	734.48157	42.56576	331.46741	662.80951	63.42279	300.36023	586.55573	79.71926	265.33817	692.28290	93.28765	276.92435	526.56219	90.33355	0.00000	0.00000	0.00000	311.29495	433.23904	69.51913	295.97525	390.48837	65.70375	250.71136	444.84857	83.46222	245.45390	401.94101	76.45258	250.22980	97.56849	124.39497	221.80367	105.01547	213.69466	302.34415	74.52354	195.79666	88.99172	59.23822	202.15205	74.67703	82.78440	148.37964	121.75959	52.55605	90.27627
1164	4.65200	571.31903	1025.63672	234.59454	374.60675	981.63330	341.99789	525.22089	715.98810	403.58737	537.72589	639.17871	385.68680	552.00751	567.69128	380.21838	458.51703	631.95343	377.74954	565.11139	520.78302	372.10330	544.47156	502.95303	247.62369	677.73187	445.84705	374.59604	701.00830	404.06860	373.28281	627.04822	411.02783	380.95242	656.76007	375.67978	377.69046	857.27740	179.02496	318.87210	828.42291	174.07465	233.57179	917.85571	202.63416	261.23898	810.80365	54.37557	343.65112	750.26398	52.56616	282.33444	782.70416	50.63298	227.17458	565.18219	1021.50787	174.89017	358.28748	992.56866	106.44823	352.88187	735.87109	41.92071	324.49619	664.13977	62.89621	293.88126	587.28021	79.26920	258.52747	693.72284	93.25510	270.71014	527.28546	90.36462	0.00000	0.00000	0.00000	305.30429	433.83392	69.19612	291.00662	391.30597	65.18771	245.20309	445.05136	83.48420	240.28021	401.89664	76.58883	251.02972	98.18941	123.08427	220.94133	104.87466	213.68954	301.92438	74.86584	195.69261	88.39106	57.67080	202.48207	74.03294	80.95584	148.84958	121.56329	52.07372	90.84265
1165	4.65600	565.84094	1026.18970	234.36066	368.62695	981.75922	341.61584	517.04828	715.20795	403.30908	528.72278	638.15552	385.96417	541.74780	566.16559	380.76593	449.38702	631.69147	378.40018	554.75586	519.57416	373.00232	533.41339	501.23132	248.51393	667.68860	446.25812	375.05591	691.62152	404.68060	373.96967	617.48541	410.77957	381.80643	648.05524	376.51379	379.68152	850.67096	182.59061	319.16766	822.28094	177.11760	233.75385	910.60590	208.74336	261.32092	808.87030	56.60541	343.63837	748.30383	52.64030	282.42044	780.89600	52.08446	227.20340	559.05219	1022.05725	174.48375	352.22296	993.51288	106.24596	344.99417	736.97687	43.05330	317.44424	665.39331	62.46025	287.55496	588.00989	78.75138	252.63435	694.51373	93.32744	264.67792	527.85883	90.33665	0.00000	0.00000	0.00000	300.75955	434.88907	68.34741	286.14120	392.04694	64.73482	239.93497	445.28659	83.43250	235.48111	402.10202	76.58133	248.66437	98.48614	123.67292	220.23795	104.80795	213.72527	301.54181	75.19125	195.59160	87.81157	56.35590	202.79926	72.71362	79.57697	149.38437	120.98115	51.55351	91.11954
1166	4.66000	559.48773	1026.33557	233.99455	362.69965	981.91687	341.19122	508.77078	714.37238	403.03452	519.52106	637.08301	386.26074	531.77454	564.93256	381.44794	440.08353	631.36420	379.06805	544.30493	518.33112	374.01062	521.60181	499.55231	249.92863	657.50641	446.70813	375.62088	682.13409	405.36655	374.64902	607.75745	410.50314	382.64902	638.98425	376.15585	379.65872	844.11469	186.83995	319.79343	815.77539	180.27100	233.89795	902.71674	214.88719	261.58987	806.68964	59.12873	343.54276	746.75134	52.67846	282.46844	779.37115	53.19345	227.36018	552.93835	1022.65588	174.10963	345.80621	994.30896	106.23610	337.67435	738.62048	42.62759	311.18167	666.95874	61.66473	281.41043	588.73358	78.17323	245.66527	695.73273	93.74887	258.81577	528.32935	90.22860	0.00000	0.00000	0.00000	295.46695	435.68335	67.93129	281.42920	392.76315	64.31551	235.33138	445.83231	83.13744	230.83273	402.36053	76.49488	246.74446	98.85083	124.52203	219.59302	104.75738	213.84761	301.22821	75.49624	195.51387	87.29535	55.19464	203.14453	72.41102	78.18646	149.86517	120.45008	51.08330	91.41635
1167	4.66400	553.20355	1026.50085	233.69092	356.79889	982.10992	340.78143	500.36108	713.56531	402.85565	510.21332	635.99628	386.60562	521.61163	563.67236	382.22778	431.22925	631.52020	379.91956	534.30212	517.49536	375.25348	509.92392	497.75378	251.02370	647.09631	447.17233	376.26132	672.48340	406.13950	375.42346	597.85760	410.30801	383.53055	629.36334	375.44641	378.90054	837.32196	190.98785	320.06726	809.06079	183.60599	233.95468	894.58551	221.21475	261.67975	804.30267	61.94989	343.46954	744.43951	52.74154	282.61938	777.47577	54.94513	227.46880	546.90515	1023.25116	173.79930	339.65659	995.32312	106.11996	330.69830	739.95087	41.89881	304.01205	667.63055	61.36263	275.47665	589.44000	77.54214	239.81366	696.70941	93.53508	253.24414	528.68445	90.07993	0.00000	0.00000	0.00000	290.54095	436.50653	67.55812	277.28674	393.42477	63.81458	230.43930	444.83636	83.65610	226.32237	402.56671	76.37540	246.98251	98.15021	124.57255	219.04790	104.71642	213.95441	300.89288	75.79780	195.45897	86.75175	54.11856	203.42313	71.22400	77.09945	150.24583	119.97590	50.64749	91.60997
1168	4.66800	547.06805	1026.73401	233.45096	350.92114	982.35809	340.35117	492.26624	713.02332	402.74686	500.85086	634.93011	386.95844	511.32056	562.40686	383.01434	421.77951	631.27515	380.57336	522.94183	515.70569	376.11096	497.97531	495.92941	252.16713	636.38068	447.62115	376.99091	662.63568	406.98035	376.08017	587.68640	410.08243	384.35678	619.31085	375.37268	379.02097	830.24091	195.22592	320.37024	802.01196	187.06879	233.97130	886.02435	227.59126	261.71707	801.62201	65.07016	343.31677	741.80725	53.03909	282.86020	775.17212	57.06574	227.60683	540.87646	1023.79822	173.53358	334.12399	996.56024	106.03425	320.78555	742.00665	39.75021	297.92914	668.75220	60.82164	269.78271	590.11823	76.86558	233.78870	697.48096	93.56174	247.95074	528.92889	89.80758	0.00000	0.00000	0.00000	285.78967	437.19073	67.27880	272.81235	393.95056	63.58481	225.56688	445.12439	83.71439	222.00323	402.72427	76.22926	246.40077	98.51196	124.62636	218.49557	104.62840	213.99800	300.57541	76.10090	195.36946	86.30322	53.08147	203.58197	70.50841	75.85739	150.49475	119.53640	50.16217	91.68597
